<mxfile host="app.diagrams.net" modified="2022-07-06T13:21:50.361Z" agent="5.0 (X11; Linux x86_64) AppleWebKit/537.36 (KHTML, like Gecko) Chrome/103.0.0.0 Safari/537.36" etag="0WworCXqXa3S6MZexGgT" version="20.0.4" type="github">
  <diagram id="6a731a19-8d31-9384-78a2-239565b7b9f0" name="Page-1">
    <mxGraphModel dx="2462" dy="680" grid="1" gridSize="10" guides="0" tooltips="1" connect="0" arrows="0" fold="1" page="0" pageScale="1" pageWidth="827" pageHeight="1169" background="none" math="0" shadow="0">
      <root>
        <mxCell id="0" />
        <mxCell id="1" parent="0" />
        <mxCell id="OFuoQI361zGCbT26yCu_-2257" value="IT infrastructure" style="rounded=1;whiteSpace=wrap;html=1;" parent="1" vertex="1">
          <mxGeometry x="-430" y="210" width="140" height="80" as="geometry" />
        </mxCell>
        <mxCell id="OFuoQI361zGCbT26yCu_-2258" value="Network" style="rounded=0;whiteSpace=wrap;html=1;" parent="1" vertex="1">
          <mxGeometry x="-190" y="380" width="120" height="60" as="geometry" />
        </mxCell>
        <mxCell id="OFuoQI361zGCbT26yCu_-2259" value="Software" style="rounded=0;whiteSpace=wrap;html=1;" parent="1" vertex="1">
          <mxGeometry x="-420" y="380" width="120" height="60" as="geometry" />
        </mxCell>
        <mxCell id="OFuoQI361zGCbT26yCu_-2262" value="Hardware" style="rounded=0;whiteSpace=wrap;html=1;" parent="1" vertex="1">
          <mxGeometry x="-630" y="380" width="120" height="60" as="geometry" />
        </mxCell>
        <mxCell id="OFuoQI361zGCbT26yCu_-2263" value="" style="endArrow=none;html=1;fontFamily=Helvetica;fontSize=11;fontColor=default;align=center;strokeColor=default;edgeStyle=orthogonalEdgeStyle;" parent="1" edge="1">
          <mxGeometry width="50" height="50" relative="1" as="geometry">
            <mxPoint x="-570" y="330" as="sourcePoint" />
            <mxPoint x="-130" y="330" as="targetPoint" />
          </mxGeometry>
        </mxCell>
        <mxCell id="OFuoQI361zGCbT26yCu_-2266" value="" style="endArrow=classic;html=1;rounded=0;" parent="1" edge="1">
          <mxGeometry width="50" height="50" relative="1" as="geometry">
            <mxPoint x="-360" y="290" as="sourcePoint" />
            <mxPoint x="-360" y="330" as="targetPoint" />
            <Array as="points">
              <mxPoint x="-360" y="310" />
            </Array>
          </mxGeometry>
        </mxCell>
        <mxCell id="OFuoQI361zGCbT26yCu_-2268" value="" style="endArrow=classic;html=1;rounded=0;" parent="1" source="OFuoQI361zGCbT26yCu_-2262" edge="1">
          <mxGeometry width="50" height="50" relative="1" as="geometry">
            <mxPoint x="-570" y="359.28932188134524" as="sourcePoint" />
            <mxPoint x="-570" y="380" as="targetPoint" />
            <Array as="points">
              <mxPoint x="-570" y="330" />
            </Array>
          </mxGeometry>
        </mxCell>
        <mxCell id="OFuoQI361zGCbT26yCu_-2271" value="" style="endArrow=classic;html=1;rounded=0;" parent="1" edge="1">
          <mxGeometry width="50" height="50" relative="1" as="geometry">
            <mxPoint x="-360" y="330" as="sourcePoint" />
            <mxPoint x="-360" y="380" as="targetPoint" />
          </mxGeometry>
        </mxCell>
        <mxCell id="OFuoQI361zGCbT26yCu_-2272" value="" style="endArrow=classic;html=1;rounded=0;" parent="1" source="OFuoQI361zGCbT26yCu_-2258" edge="1">
          <mxGeometry width="50" height="50" relative="1" as="geometry">
            <mxPoint x="-130" y="359.28932188134524" as="sourcePoint" />
            <mxPoint x="-130" y="380" as="targetPoint" />
            <Array as="points">
              <mxPoint x="-130" y="330" />
            </Array>
          </mxGeometry>
        </mxCell>
        <mxCell id="OFuoQI361zGCbT26yCu_-2278" value="" style="endArrow=none;html=1;rounded=0;" parent="1" edge="1">
          <mxGeometry width="50" height="50" relative="1" as="geometry">
            <mxPoint x="-660" y="480" as="sourcePoint" />
            <mxPoint x="-510" y="480" as="targetPoint" />
          </mxGeometry>
        </mxCell>
        <mxCell id="OFuoQI361zGCbT26yCu_-2280" value="" style="endArrow=classic;html=1;rounded=0;" parent="1" edge="1">
          <mxGeometry width="50" height="50" relative="1" as="geometry">
            <mxPoint x="-660" y="500" as="sourcePoint" />
            <mxPoint x="-660" y="500" as="targetPoint" />
            <Array as="points">
              <mxPoint x="-660" y="480" />
            </Array>
          </mxGeometry>
        </mxCell>
        <mxCell id="OFuoQI361zGCbT26yCu_-2282" value="" style="endArrow=classic;html=1;rounded=0;" parent="1" edge="1">
          <mxGeometry width="50" height="50" relative="1" as="geometry">
            <mxPoint x="-510" y="500" as="sourcePoint" />
            <mxPoint x="-510" y="500" as="targetPoint" />
            <Array as="points">
              <mxPoint x="-510" y="480" />
            </Array>
          </mxGeometry>
        </mxCell>
        <mxCell id="OFuoQI361zGCbT26yCu_-2283" value="" style="endArrow=classic;html=1;rounded=0;" parent="1" source="OFuoQI361zGCbT26yCu_-2262" edge="1">
          <mxGeometry width="50" height="50" relative="1" as="geometry">
            <mxPoint x="-570" y="490" as="sourcePoint" />
            <mxPoint x="-570" y="480" as="targetPoint" />
            <Array as="points">
              <mxPoint x="-570" y="480" />
            </Array>
          </mxGeometry>
        </mxCell>
        <mxCell id="OFuoQI361zGCbT26yCu_-2297" value="Internal Hardware" style="swimlane;" parent="1" vertex="1">
          <mxGeometry x="-730" y="500" width="130" height="180" as="geometry" />
        </mxCell>
        <mxCell id="OFuoQI361zGCbT26yCu_-2300" value="RAM" style="text;html=1;align=center;verticalAlign=middle;resizable=0;points=[];autosize=1;strokeColor=none;fillColor=none;" parent="OFuoQI361zGCbT26yCu_-2297" vertex="1">
          <mxGeometry x="30" y="30" width="50" height="30" as="geometry" />
        </mxCell>
        <mxCell id="OFuoQI361zGCbT26yCu_-2301" value="Hard drive" style="text;html=1;align=center;verticalAlign=middle;resizable=0;points=[];autosize=1;strokeColor=none;fillColor=none;" parent="OFuoQI361zGCbT26yCu_-2297" vertex="1">
          <mxGeometry x="20" y="50" width="80" height="30" as="geometry" />
        </mxCell>
        <mxCell id="OFuoQI361zGCbT26yCu_-2302" value="SSD" style="text;html=1;align=center;verticalAlign=middle;resizable=0;points=[];autosize=1;strokeColor=none;fillColor=none;" parent="OFuoQI361zGCbT26yCu_-2297" vertex="1">
          <mxGeometry x="35" y="75" width="50" height="30" as="geometry" />
        </mxCell>
        <mxCell id="OFuoQI361zGCbT26yCu_-2298" value="External Hardware" style="swimlane;startSize=20;" parent="1" vertex="1">
          <mxGeometry x="-570" y="500" width="130" height="200" as="geometry" />
        </mxCell>
        <mxCell id="OFuoQI361zGCbT26yCu_-2311" value="USB" style="text;html=1;align=center;verticalAlign=middle;resizable=0;points=[];autosize=1;strokeColor=none;fillColor=none;" parent="OFuoQI361zGCbT26yCu_-2298" vertex="1">
          <mxGeometry x="35" y="85" width="50" height="30" as="geometry" />
        </mxCell>
        <mxCell id="OFuoQI361zGCbT26yCu_-2303" value="GPU" style="text;html=1;align=center;verticalAlign=middle;resizable=0;points=[];autosize=1;strokeColor=none;fillColor=none;" parent="1" vertex="1">
          <mxGeometry x="-695" y="595" width="50" height="30" as="geometry" />
        </mxCell>
        <mxCell id="OFuoQI361zGCbT26yCu_-2304" value="Air or liquid coolant" style="text;html=1;align=center;verticalAlign=middle;resizable=0;points=[];autosize=1;strokeColor=none;fillColor=none;" parent="1" vertex="1">
          <mxGeometry x="-735" y="615" width="130" height="30" as="geometry" />
        </mxCell>
        <mxCell id="OFuoQI361zGCbT26yCu_-2307" value="Monitor" style="text;html=1;align=center;verticalAlign=middle;resizable=0;points=[];autosize=1;strokeColor=none;fillColor=none;" parent="1" vertex="1">
          <mxGeometry x="-540" y="525" width="60" height="30" as="geometry" />
        </mxCell>
        <mxCell id="OFuoQI361zGCbT26yCu_-2308" value="Mouse" style="text;html=1;align=center;verticalAlign=middle;resizable=0;points=[];autosize=1;strokeColor=none;fillColor=none;" parent="1" vertex="1">
          <mxGeometry x="-540" y="545" width="60" height="30" as="geometry" />
        </mxCell>
        <mxCell id="OFuoQI361zGCbT26yCu_-2309" value="Keyboard" style="text;html=1;align=center;verticalAlign=middle;resizable=0;points=[];autosize=1;strokeColor=none;fillColor=none;" parent="1" vertex="1">
          <mxGeometry x="-545" y="565" width="70" height="30" as="geometry" />
        </mxCell>
        <mxCell id="OFuoQI361zGCbT26yCu_-2310" value="CPU" style="text;html=1;align=center;verticalAlign=middle;resizable=0;points=[];autosize=1;strokeColor=none;fillColor=none;" parent="1" vertex="1">
          <mxGeometry x="-695" y="635" width="50" height="30" as="geometry" />
        </mxCell>
        <mxCell id="OFuoQI361zGCbT26yCu_-2312" value="Printer" style="text;html=1;align=center;verticalAlign=middle;resizable=0;points=[];autosize=1;strokeColor=none;fillColor=none;" parent="1" vertex="1">
          <mxGeometry x="-540" y="605" width="60" height="30" as="geometry" />
        </mxCell>
        <mxCell id="OFuoQI361zGCbT26yCu_-2313" value="Headphones" style="text;html=1;align=center;verticalAlign=middle;resizable=0;points=[];autosize=1;strokeColor=none;fillColor=none;" parent="1" vertex="1">
          <mxGeometry x="-555" y="625" width="90" height="30" as="geometry" />
        </mxCell>
        <mxCell id="OFuoQI361zGCbT26yCu_-2318" value="OS&lt;br&gt;Applications&lt;br&gt;Firewall&lt;br&gt;Device drivers" style="rounded=0;whiteSpace=wrap;html=1;direction=south;" parent="1" vertex="1">
          <mxGeometry x="-400" y="500" width="100" height="160" as="geometry" />
        </mxCell>
        <mxCell id="OFuoQI361zGCbT26yCu_-2319" value="" style="endArrow=classic;html=1;rounded=0;" parent="1" source="OFuoQI361zGCbT26yCu_-2259" edge="1">
          <mxGeometry width="50" height="50" relative="1" as="geometry">
            <mxPoint x="-360" y="490" as="sourcePoint" />
            <mxPoint x="-360" y="500" as="targetPoint" />
          </mxGeometry>
        </mxCell>
        <mxCell id="OFuoQI361zGCbT26yCu_-2324" value="" style="endArrow=classic;html=1;rounded=0;entryX=0.467;entryY=0.017;entryDx=0;entryDy=0;entryPerimeter=0;" parent="1" edge="1">
          <mxGeometry width="50" height="50" relative="1" as="geometry">
            <mxPoint x="-128" y="440" as="sourcePoint" />
            <mxPoint x="-127.97000000000003" y="481.02" as="targetPoint" />
          </mxGeometry>
        </mxCell>
        <mxCell id="OFuoQI361zGCbT26yCu_-2327" value="Internet" style="ellipse;whiteSpace=wrap;html=1;" parent="1" vertex="1">
          <mxGeometry x="-190" y="480" width="120" height="80" as="geometry" />
        </mxCell>
        <mxCell id="OFuoQI361zGCbT26yCu_-2330" value="Routers" style="text;html=1;align=center;verticalAlign=middle;resizable=0;points=[];autosize=1;strokeColor=none;fillColor=none;" parent="1" vertex="1">
          <mxGeometry x="-545" y="645" width="70" height="30" as="geometry" />
        </mxCell>
        <mxCell id="OFuoQI361zGCbT26yCu_-2331" value="LAN cables" style="text;html=1;align=center;verticalAlign=middle;resizable=0;points=[];autosize=1;strokeColor=none;fillColor=none;" parent="1" vertex="1">
          <mxGeometry x="-550" y="665" width="80" height="30" as="geometry" />
        </mxCell>
        <mxCell id="OFuoQI361zGCbT26yCu_-2332" value="ISP" style="shape=hexagon;perimeter=hexagonPerimeter2;whiteSpace=wrap;html=1;fixedSize=1;" parent="1" vertex="1">
          <mxGeometry x="-170" y="590" width="90" height="50" as="geometry" />
        </mxCell>
        <mxCell id="OFuoQI361zGCbT26yCu_-2333" value="" style="endArrow=classic;html=1;rounded=0;" parent="1" source="OFuoQI361zGCbT26yCu_-2332" edge="1">
          <mxGeometry width="50" height="50" relative="1" as="geometry">
            <mxPoint x="-125" y="569.2893218813452" as="sourcePoint" />
            <mxPoint x="-125" y="590" as="targetPoint" />
            <Array as="points">
              <mxPoint x="-125" y="560" />
            </Array>
          </mxGeometry>
        </mxCell>
        <mxCell id="OFuoQI361zGCbT26yCu_-2334" value="Routers" style="shape=trapezoid;perimeter=trapezoidPerimeter;whiteSpace=wrap;html=1;fixedSize=1;" parent="1" vertex="1">
          <mxGeometry x="-170" y="680" width="90" height="40" as="geometry" />
        </mxCell>
        <mxCell id="OFuoQI361zGCbT26yCu_-2335" value="" style="endArrow=classic;html=1;rounded=0;entryX=0.489;entryY=0.025;entryDx=0;entryDy=0;entryPerimeter=0;" parent="1" source="OFuoQI361zGCbT26yCu_-2332" target="OFuoQI361zGCbT26yCu_-2334" edge="1">
          <mxGeometry width="50" height="50" relative="1" as="geometry">
            <mxPoint x="-125" y="690" as="sourcePoint" />
            <mxPoint x="-125" y="710.7106781186548" as="targetPoint" />
          </mxGeometry>
        </mxCell>
        <mxCell id="OFuoQI361zGCbT26yCu_-2338" value="Firewall" style="shape=parallelogram;perimeter=parallelogramPerimeter;whiteSpace=wrap;html=1;fixedSize=1;" parent="1" vertex="1">
          <mxGeometry x="-170" y="750" width="80" height="40" as="geometry" />
        </mxCell>
        <mxCell id="OFuoQI361zGCbT26yCu_-2339" value="" style="endArrow=classic;html=1;rounded=0;" parent="1" source="OFuoQI361zGCbT26yCu_-2334" edge="1">
          <mxGeometry width="50" height="50" relative="1" as="geometry">
            <mxPoint x="-125" y="770" as="sourcePoint" />
            <mxPoint x="-125" y="750" as="targetPoint" />
          </mxGeometry>
        </mxCell>
        <mxCell id="OFuoQI361zGCbT26yCu_-2340" value="" style="endArrow=classic;html=1;rounded=0;" parent="1" source="OFuoQI361zGCbT26yCu_-2334" edge="1">
          <mxGeometry width="50" height="50" relative="1" as="geometry">
            <mxPoint x="-80" y="750" as="sourcePoint" />
            <mxPoint x="-9.289321881345245" y="700" as="targetPoint" />
          </mxGeometry>
        </mxCell>
        <mxCell id="OFuoQI361zGCbT26yCu_-2341" value="Guest" style="rounded=1;whiteSpace=wrap;html=1;" parent="1" vertex="1">
          <mxGeometry x="-10" y="670" width="120" height="60" as="geometry" />
        </mxCell>
        <mxCell id="OFuoQI361zGCbT26yCu_-2342" value="Server" style="shape=cylinder3;whiteSpace=wrap;html=1;boundedLbl=1;backgroundOutline=1;size=15;" parent="1" vertex="1">
          <mxGeometry x="170" y="830" width="90" height="140" as="geometry" />
        </mxCell>
        <mxCell id="OFuoQI361zGCbT26yCu_-2343" value="Access point" style="shape=trapezoid;perimeter=trapezoidPerimeter;whiteSpace=wrap;html=1;fixedSize=1;" parent="1" vertex="1">
          <mxGeometry x="10" y="880" width="90" height="40" as="geometry" />
        </mxCell>
        <mxCell id="OFuoQI361zGCbT26yCu_-2344" value="" style="endArrow=classic;html=1;rounded=0;entryX=-0.033;entryY=0.493;entryDx=0;entryDy=0;entryPerimeter=0;" parent="1" target="OFuoQI361zGCbT26yCu_-2342" edge="1">
          <mxGeometry width="50" height="50" relative="1" as="geometry">
            <mxPoint x="90" y="899" as="sourcePoint" />
            <mxPoint x="100" y="900" as="targetPoint" />
            <Array as="points">
              <mxPoint x="90" y="900" />
            </Array>
          </mxGeometry>
        </mxCell>
        <mxCell id="OFuoQI361zGCbT26yCu_-2345" value="Admin" style="whiteSpace=wrap;html=1;aspect=fixed;" parent="1" vertex="1">
          <mxGeometry x="-140" y="850" width="100" height="100" as="geometry" />
        </mxCell>
        <mxCell id="OFuoQI361zGCbT26yCu_-2347" value="" style="endArrow=classic;html=1;rounded=0;entryX=0.59;entryY=-0.02;entryDx=0;entryDy=0;entryPerimeter=0;" parent="1" target="OFuoQI361zGCbT26yCu_-2345" edge="1">
          <mxGeometry width="50" height="50" relative="1" as="geometry">
            <mxPoint x="-81" y="820" as="sourcePoint" />
            <mxPoint x="-130" y="850" as="targetPoint" />
            <Array as="points">
              <mxPoint x="-80" y="830" />
            </Array>
          </mxGeometry>
        </mxCell>
        <mxCell id="OFuoQI361zGCbT26yCu_-2348" value="" style="endArrow=classic;html=1;rounded=0;entryX=0.078;entryY=0.5;entryDx=0;entryDy=0;entryPerimeter=0;" parent="1" target="OFuoQI361zGCbT26yCu_-2343" edge="1">
          <mxGeometry width="50" height="50" relative="1" as="geometry">
            <mxPoint x="-40" y="900" as="sourcePoint" />
            <mxPoint x="-29.289321881345245" y="900" as="targetPoint" />
          </mxGeometry>
        </mxCell>
        <mxCell id="OFuoQI361zGCbT26yCu_-2349" value="Developer" style="rounded=0;whiteSpace=wrap;html=1;" parent="1" vertex="1">
          <mxGeometry x="-420" y="860" width="140" height="80" as="geometry" />
        </mxCell>
        <mxCell id="OFuoQI361zGCbT26yCu_-2351" value="" style="endArrow=classic;html=1;rounded=0;entryX=-0.02;entryY=0.47;entryDx=0;entryDy=0;entryPerimeter=0;" parent="1" source="OFuoQI361zGCbT26yCu_-2349" target="OFuoQI361zGCbT26yCu_-2345" edge="1">
          <mxGeometry width="50" height="50" relative="1" as="geometry">
            <mxPoint x="-280" y="950" as="sourcePoint" />
            <mxPoint x="-209.28932188134524" y="900" as="targetPoint" />
          </mxGeometry>
        </mxCell>
        <mxCell id="OFuoQI361zGCbT26yCu_-2352" value="" style="endArrow=none;html=1;rounded=0;" parent="1" edge="1">
          <mxGeometry width="50" height="50" relative="1" as="geometry">
            <mxPoint x="-360" y="820" as="sourcePoint" />
            <mxPoint x="-80" y="820" as="targetPoint" />
          </mxGeometry>
        </mxCell>
        <mxCell id="OFuoQI361zGCbT26yCu_-2353" value="" style="endArrow=classic;html=1;rounded=0;entryX=0.421;entryY=-0.012;entryDx=0;entryDy=0;entryPerimeter=0;" parent="1" target="OFuoQI361zGCbT26yCu_-2349" edge="1">
          <mxGeometry width="50" height="50" relative="1" as="geometry">
            <mxPoint x="-360" y="820" as="sourcePoint" />
            <mxPoint x="-190" y="770" as="targetPoint" />
          </mxGeometry>
        </mxCell>
        <mxCell id="OFuoQI361zGCbT26yCu_-2354" value="" style="endArrow=classic;html=1;rounded=0;exitX=0.488;exitY=1.025;exitDx=0;exitDy=0;exitPerimeter=0;" parent="1" source="OFuoQI361zGCbT26yCu_-2338" edge="1">
          <mxGeometry width="50" height="50" relative="1" as="geometry">
            <mxPoint x="-130" y="840" as="sourcePoint" />
            <mxPoint x="-130" y="820" as="targetPoint" />
          </mxGeometry>
        </mxCell>
      </root>
    </mxGraphModel>
  </diagram>
</mxfile>
